<svg width="16" height="16" viewBox="0 0 16 16" fill="none" xmlns="http://www.w3.org/2000/svg">
<path d="M1.23333 1C1.09333 1 1 1.09333 1 1.23333V3.56667C1 3.70667 1.09333 3.8 1.23333 3.8C7.16 3.8 12.2 8.84 12.2 14.7667C12.2 14.9067 12.2933 15 12.4333 15H14.7667C14.9067 15 15 14.9067 15 14.7667C15 7.16 8.84 1 1.23333 1Z" fill="#ffa500"/>
<path d="M1.23333 5.19995C1.09333 5.19995 1 5.29328 1 5.43328V7.76662C1 7.90662 1.09333 7.99995 1.23333 7.99995C4.96667 7.99995 8 11.0333 8 14.7666C8 14.9066 8.09333 15 8.23333 15H10.5667C10.7067 15 10.8 14.9066 10.8 14.7666C10.8 9.49328 6.50667 5.19995 1.23333 5.19995Z" fill="#ffa500"/>
<path d="M3.1 10.8C1.93333 10.8 1 11.7334 1 12.9C1 14.0667 1.93333 15 3.1 15C4.26667 15 5.2 14.0667 5.2 12.9C5.2 11.7334 4.26667 10.8 3.1 10.8Z" fill="#ffa500"/>
</svg>
