<svg width="24" height="24" viewBox="0 0 24 24" fill="none" xmlns="http://www.w3.org/2000/svg">
<path d="M8 2H3C2.44772 2 2 2.44772 2 3V8C2 8.55228 2.44772 9 3 9H8C8.55228 9 9 8.55228 9 8V3C9 2.44772 8.55228 2 8 2Z" stroke="#4D4D4D" stroke-width="2" stroke-miterlimit="10" stroke-linecap="round"/>
<path d="M8 15H3C2.44772 15 2 15.4477 2 16V21C2 21.5523 2.44772 22 3 22H8C8.55228 22 9 21.5523 9 21V16C9 15.4477 8.55228 15 8 15Z" stroke="#4D4D4D" stroke-width="2" stroke-miterlimit="10" stroke-linecap="round"/>
<path d="M14 3H22" stroke="#4D4D4D" stroke-width="2" stroke-miterlimit="10" stroke-linecap="round"/>
<path d="M14 8H22" stroke="#4D4D4D" stroke-width="2" stroke-miterlimit="10" stroke-linecap="round"/>
<path d="M14 16H22" stroke="#4D4D4D" stroke-width="2" stroke-miterlimit="10" stroke-linecap="round"/>
<path d="M14 21H22" stroke="#4D4D4D" stroke-width="2" stroke-miterlimit="10" stroke-linecap="round"/>
</svg>
