<svg width="16" height="16" viewBox="0 0 16 16" fill="none" xmlns="http://www.w3.org/2000/svg">
<path d="M5 8C6.65685 8 8 6.65685 8 5C8 3.34315 6.65685 2 5 2C3.34315 2 2 3.34315 2 5C2 6.65685 3.34315 8 5 8Z" fill="#4D4D4D"/>
<path d="M8.56889 9.71612C7.80222 9.38931 6.56167 9 5 9C3.43833 9 2.19778 9.38931 1.43111 9.71612C0.575 10.0804 0 11.0196 0 12.0532V13C0 14.1046 0.89543 15 2 15H8C9.10457 15 10 14.1046 10 13L10 12.0532C10 11.0196 9.425 10.0804 8.56889 9.71612Z" fill="#4D4D4D"/>
<path d="M14 7H10" stroke="#4D4D4D" stroke-width="2" stroke-linecap="round"/>
<path d="M13 5L14.9293 6.92929C14.9683 6.96834 14.9683 7.03166 14.9293 7.07071L13 9" stroke="#4D4D4D" stroke-width="2" stroke-linecap="round"/>
</svg>
